<?xml version="1.0" encoding="UTF-8"?>
<svg xmlns="http://www.w3.org/2000/svg" width="11" height="11" viewBox="0 0 11 11" shape-rendering="crispEdges">
  <g class="gotchi-collateral"><g fill="#000000"><rect x="0" y="0" width="5" height="1"/><rect x="6" y="0" width="5" height="1"/><rect x="0" y="1" width="5" height="1"/><rect x="6" y="1" width="5" height="1"/><rect x="0" y="2" width="5" height="1"/><rect x="6" y="2" width="5" height="1"/><rect x="0" y="3" width="5" height="1"/><rect x="6" y="3" width="5" height="1"/><rect x="0" y="4" width="5" height="1"/><rect x="6" y="4" width="5" height="1"/><rect x="0" y="6" width="5" height="1"/><rect x="6" y="6" width="5" height="1"/><rect x="0" y="7" width="5" height="1"/><rect x="6" y="7" width="5" height="1"/><rect x="0" y="8" width="5" height="1"/><rect x="6" y="8" width="5" height="1"/><rect x="0" y="9" width="5" height="1"/><rect x="6" y="9" width="5" height="1"/><rect x="0" y="10" width="5" height="1"/><rect x="6" y="10" width="5" height="1"/></g></g>
</svg>
